<svg role="img" viewBox="0 0 24 24" xmlns="http://www.w3.org/2000/svg"><path d="M23.546 10.93L13.067.452c-.604-.603-1.582-.603-2.188 0L8.708 2.627l2.76 2.76c.645-.215 1.379-.07 1.889.441.516.515.658 1.258.438 1.9l2.66 2.66c.645-.222 1.387-.078 1.9.435.721.72.721 1.884 0 2.604-.72.719-1.886.719-2.605 0-.538-.536-.656-1.34-.354-1.99l-2.48-2.48v6.53c.175.086.34.19.488.34.72.72.72 1.884 0 2.604-.72.719-1.886.719-2.604 0-.72-.72-.72-1.885 0-2.604.177-.178.383-.312.604-.413v-6.592c-.22-.1-.426-.233-.604-.413-.545-.544-.66-1.35-.348-2.005L8.11 3.687.452 11.344c-.604.603-.604 1.582 0 2.186l10.48 10.477c.604.604 1.582.604 2.186 0l10.43-10.43c.604-.603.604-1.583 0-2.187"/></svg>
